<svg version="1.0" xmlns="http://www.w3.org/2000/svg"
 width="640.000000pt" height="512.000000pt" viewBox="0 0 640.000000 512.000000"
 preserveAspectRatio="xMidYMid meet">

<g transform="translate(0.000000,130.000000) scale(0.100000,-0.100000)"
fill="#000000" stroke="none">
<path d="M1165 910 c28 -7 29 -8 8 -15 -13 -4 -20 -11 -17 -16 8 -13 44 9 44
26 0 10 -10 15 -32 14 l-33 -1 30 -8z"/>
<path d="M1100 885 c-13 -14 -19 -25 -14 -25 5 0 2 -5 -6 -10 -8 -5 -15 -13
-16 -17 0 -4 -4 -16 -8 -25 -4 -9 -6 -25 -3 -35 3 -13 5 -11 6 7 2 29 19 53
43 63 11 4 15 13 11 28 -4 13 -2 20 4 16 5 -3 10 0 10 8 0 19 1 19 -27 -10z"/>
<path d="M756 855 c-30 -33 -39 -88 -21 -132 11 -26 27 -39 70 -58 31 -14 58
-32 61 -40 9 -23 -15 -45 -47 -45 -22 0 -32 6 -39 25 -7 18 -17 25 -36 25 -25
0 -26 -2 -21 -36 7 -45 30 -71 68 -79 77 -17 129 30 129 116 0 53 -19 75 -92
107 -49 21 -61 45 -36 70 18 18 36 14 60 -13 12 -14 30 -25 40 -25 29 0 23 47
-11 81 -39 38 -92 40 -125 4z"/>
<path d="M1388 851 l-33 -29 -3 -151 -3 -151 25 0 26 0 0 123 c0 129 11 167
49 167 35 0 41 -21 41 -138 0 -120 8 -152 40 -152 19 0 20 7 20 113 -1 145
-11 195 -45 224 -36 32 -77 29 -117 -6z"/>
<path d="M120 851 c-6 -11 -10 -87 -10 -175 0 -149 1 -156 20 -156 11 0 23 -1
28 -2 4 -2 9 31 12 72 4 66 7 75 25 75 14 0 32 -21 62 -70 37 -61 46 -71 77
-76 20 -3 36 -4 36 -3 0 2 -27 47 -60 101 -33 53 -60 103 -60 110 0 6 23 39
50 72 28 33 50 63 50 66 0 3 -12 5 -27 5 -22 1 -42 -15 -90 -67 l-62 -68 -1
68 c0 60 -2 67 -20 67 -10 0 -24 -9 -30 -19z"/>
<path d="M427 723 c19 -82 36 -160 40 -175 4 -23 11 -28 34 -28 18 0 29 6 33
18 6 19 76 323 76 328 0 2 -11 4 -25 4 -32 0 -39 -15 -60 -137 -11 -57 -21
-103 -25 -103 -3 0 -13 46 -23 103 -25 140 -24 137 -56 137 l-28 0 34 -147z"/>
<path d="M640 696 l0 -176 25 0 25 0 -2 173 c-3 170 -3 172 -25 175 l-23 3 0
-175z"/>
<path d="M940 695 l0 -175 30 0 30 0 0 159 c0 88 -3 166 -6 175 -3 9 -17 16
-30 16 l-24 0 0 -175z"/>
<path d="M1090 776 c0 -8 -15 -31 -34 -50 -32 -34 -33 -38 -25 -86 11 -71 92
-180 116 -156 11 11 -29 96 -58 123 -36 34 -36 56 -4 117 27 51 31 66 15 66
-5 0 -10 -6 -10 -14z"/>
<path d="M328 725 c-15 -33 3 -75 32 -75 23 0 36 36 26 75 -4 16 -13 25 -26
25 -12 0 -25 -10 -32 -25z"/>
<path d="M1305 684 c-4 -10 -11 -27 -16 -36 -6 -13 -5 -16 5 -12 8 3 17 17 21
31 7 30 -2 45 -10 17z"/>
<path d="M1170 506 c0 -19 5 -26 20 -26 17 0 19 3 10 19 -16 32 -30 34 -30 7z"/>
</g>
</svg>
