
<svg version="1.0" xmlns="http://www.w3.org/2000/svg"
 viewBox="0 0 640 512"
 preserveAspectRatio="xMidYMid meet">

<g transform="translate(0.000000,329.000000) scale(0.100000,-0.100000)"
fill="#000000" stroke="none">
<path d="M690 1610 c0 -1117 1 -1180 18 -1180 9 0 55 12 102 26 47 14 327 95
622 180 l538 156 442 -127 c244 -69 479 -136 523 -150 44 -13 107 -31 140 -41
33 -9 87 -25 119 -35 33 -11 61 -19 63 -19 1 0 3 533 3 1185 l0 1185 -1285 0
-1285 0 0 -1180z m728 790 c23 -9 112 -99 298 -302 147 -159 270 -288 275
-286 4 2 92 95 195 208 338 371 344 376 410 390 70 15 188 9 229 -11 16 -8 40
-29 52 -48 l23 -34 0 -591 c0 -554 -2 -594 -19 -632 -27 -59 -71 -77 -186 -76
-109 1 -169 21 -190 63 -12 23 -15 91 -15 379 0 192 -4 350 -8 350 -5 0 -60
-59 -123 -132 -204 -236 -220 -253 -267 -277 -35 -19 -62 -25 -104 -24 -99 2
-126 22 -309 229 -90 102 -165 190 -167 195 -16 42 -22 -41 -24 -350 -3 -343
-4 -360 -23 -381 -34 -38 -80 -51 -181 -51 -113 -1 -160 17 -186 71 -17 32
-18 83 -18 628 0 520 2 598 16 627 14 31 49 55 99 68 32 9 187 0 223 -13z"/>
</g>
</svg>
